<svg width="250" height="170" viewBox="0 0 622 450" fill="#DA64AA" xmlns="http://www.w3.org/2000/svg">
    <path d="M275.208 446.275C271.882 438.384 275.597 425.956 276.137 418.657C277.402 401.577 277.481 382.119 276.32 373.465C275.729 369.055 274.679 365.068 273.345 362.166C271.315 357.749 270.424 357.067 268.378 358.361C266.088 359.81 265.646 398.487 267.693 418.298C268.695 427.996 268.056 441.202 266.468 443.626C265.016 445.841 261.866 447.101 254.641 448.355C243.674 450.258 243.576 450.007 244.236 421.527C244.496 410.282 244.857 400.114 245.038 398.93C245.219 397.747 245.387 376.631 245.411 352.007C245.452 310.537 244.912 285.707 243.24 252.313C242.371 234.953 242.745 233.94 250.765 231.898C263.414 228.678 276.627 229.297 284.451 233.476C289.282 236.056 295.71 242.478 298.015 247.027C304.851 260.516 306.265 295.496 300.865 317.512C298.424 327.465 293.828 334.841 288.314 337.654C286.797 338.428 285.556 339.343 285.556 339.686C285.556 340.03 286.963 341.88 288.684 343.797C290.404 345.713 292.992 349.541 294.435 352.303C298.157 359.426 298.614 364.562 298.041 392.833C297.523 418.389 298.653 422.955 300.743 435.101C302.893 450.794 276.914 450.029 275.208 446.275ZM272.355 321.452C275.701 318.106 278.993 309.87 280.238 301.73C281.657 292.453 281.263 278.016 279.45 272.867C277.858 268.345 274.665 265.634 271.649 266.244C268.533 266.874 267.081 268.865 266.532 273.262C265.886 278.427 266.405 321.239 267.126 322.354C268.06 323.797 270.417 323.391 272.355 321.452ZM90.08 447.282C84.1619 447.046 78.8003 446.626 78.1653 446.347C75.2314 445.059 75.0895 443.41 76.0762 422.071C76.7736 406.988 76.8653 391.61 76.4345 361.987C76.1162 340.09 75.8948 321.368 75.9426 320.381C76.0247 318.693 74.4268 293.708 73.5342 282.721C73.2073 278.697 73.3852 277.203 74.4296 275.203C76.1142 271.976 79.5086 269.746 83.688 269.119C85.5196 268.844 88.9983 267.985 91.4184 267.209C96.1626 265.689 113.359 262.926 114.363 263.523C117.956 265.659 119.72 296.455 116.597 302.496C115.246 305.107 113.532 305.389 108.993 303.745C102.114 301.254 97.8136 302.125 96.0188 306.373C94.5943 309.745 94.8386 330.735 96.3405 334.025C98.749 339.301 101.493 340.023 109.632 337.52C112.297 336.701 112.83 336.727 113.832 337.729C117.328 341.225 118.183 363.941 114.94 367.183C114.463 367.66 112.084 367.467 107.819 366.605C102.439 365.517 101.062 365.456 99.2062 366.225C97.9915 366.728 96.8074 367.635 96.5749 368.241C95.594 370.797 95.3375 384.407 96.1316 391.757C97.2062 401.701 98.3078 403.866 102.449 404.17C106.042 404.434 108.56 403.223 113.454 398.876C120.624 392.508 121.257 394.504 120.557 421.242C119.967 443.747 119.713 445.016 115.536 446.365C112.132 447.465 102.972 447.794 90.08 447.282ZM131.327 447.333C124.464 446.384 123.842 445.381 124.438 436.232C124.694 432.287 125.207 425.831 125.576 421.885C127.538 400.93 127.007 308.697 124.785 284.605C123.692 272.755 123.742 264.351 124.915 262.472C126.717 259.588 132.524 257.055 138.164 256.693C142.85 256.392 143.441 256.511 144.865 258.039C148.33 261.759 158.223 300.319 163.619 331.141C166.075 345.171 167.542 349.982 166.899 341.901C166.695 339.337 166.357 334.334 166.149 330.783C165.94 327.232 164.743 308.754 163.489 289.72C161.587 260.87 161.362 254.824 162.136 253.379C163.152 251.48 172.95 247.477 178.417 246.728C181.104 246.36 181.523 246.518 182.723 248.349C183.978 250.264 184.058 252.892 184.168 295.601C184.33 358.995 184.954 399.512 186.014 415.429C186.513 422.925 186.921 432.359 186.921 436.392C186.921 446.141 186.517 446.586 177.481 446.794C171.482 446.932 170.73 446.79 168.06 445.023C164.674 442.783 164.472 442.078 162.13 424.396C159.341 403.326 152.096 365.947 147.753 350.218C146.49 345.643 145.985 347.465 146.53 354.634C146.822 358.481 147.378 369.699 147.766 379.562C148.153 389.425 149.169 406.931 150.024 418.464C150.878 429.997 151.374 440.517 151.125 441.842C150.348 445.985 148.161 447.334 141.668 447.678C138.545 447.843 133.892 447.689 131.327 447.333ZM207.803 447.242C196.561 446.489 194.593 446.018 192.833 443.66C191.503 441.88 191.489 440.975 192.345 412.488C193.159 385.377 192.891 304.094 191.936 288.818C190.771 270.167 190.149 257.883 190.149 253.517C190.149 248.796 190.288 248.365 192.53 246.122C194.091 244.562 196.255 243.387 198.807 242.714C213.314 238.89 221.736 237.067 226.665 236.687C232.037 236.273 232.429 236.344 234.122 238.037C235.68 239.594 235.983 240.735 236.487 246.925C236.804 250.831 237.08 259.529 237.1 266.253C237.13 276.762 236.957 278.751 235.871 280.41C234.06 283.173 231.887 283.436 226.141 281.585C215.091 278.026 212.43 282.207 212.405 303.165C212.394 313.173 213.135 316.89 215.641 319.397C217.672 321.428 220.705 321.602 225.065 319.937C230.726 317.775 232.522 319.393 233.913 327.913C235.001 334.573 234.809 347.961 233.585 350.891C232.4 353.727 230.095 354.205 227.093 352.237C226.134 351.609 223.482 350.927 221.2 350.72C213.86 350.056 212.433 352.7 212.404 367.027C212.385 375.489 213.323 385.32 214.61 390.181C216.606 397.721 222.583 397.395 230.994 389.288C235.218 385.217 236.911 384.82 238.659 387.489C239.743 389.142 239.821 391.836 239.476 415.415C239.132 438.956 238.964 441.78 237.756 444.252C236.538 446.745 236.094 447.035 232.831 447.467C228.134 448.09 219.25 448.01 207.803 447.242ZM309.934 446.024C306.247 444.067 306.349 438.206 305.737 429.536C305.179 421.64 304.131 414.835 304.549 403.363C304.968 391.857 305.274 379.849 305.647 376.693C306.02 373.536 306.804 365.305 307.388 358.4C308.586 344.25 312.403 301.706 313.502 290.253C314.875 275.949 315.854 252.558 315.521 241.998C315.273 234.119 315.421 231.085 316.098 230.162C316.9 229.07 318.466 228.92 329.111 228.92C339.568 228.92 341.482 229.096 343.188 230.214C347.523 233.055 349.771 239.254 350.781 251.158C351.15 255.498 352.438 267.603 353.644 278.058C355.894 297.557 356.912 307.698 361.235 353.738C362.606 368.336 364.893 389.156 366.317 400.006C368.891 419.622 369.845 437.25 368.578 441.778C367.876 444.287 365.207 445.616 359.801 446.15C352.916 446.83 346.191 445.802 343.963 443.729C340.886 440.866 340.739 439.606 341.936 426.358C342.55 419.558 343.109 407.01 343.177 398.474C343.294 383.87 343.217 382.86 341.867 381.353C340.564 379.898 339.977 379.789 335.479 380.162C332.755 380.388 330.19 380.91 329.778 381.321C327.702 383.397 328.2 405.08 330.743 423.32C333.347 441.999 333.327 440.995 331.145 443.588C328.762 446.42 325.584 447.342 318.184 447.347C313.963 447.35 311.769 446.998 309.934 446.024ZM338.052 346.026C338.668 345.533 339.363 344.335 339.596 343.364C339.828 342.393 339.558 332.871 338.994 322.203C337.219 288.583 337.072 287.384 334.725 287.384C333.324 287.384 332.977 289.649 332.201 303.882C331.824 310.787 331.148 320.582 330.697 325.649C329.84 335.283 330.48 343.795 332.218 345.89C333.273 347.161 336.537 347.237 338.052 346.026ZM36.7039 444.818C31.4193 443.343 26.9412 439.969 22.5479 434.15C8.14204 415.069 -0.0837165 383.443 0.000642549 347.461C0.1008 304.802 13.7341 277.276 36.8823 272.997C45.5798 271.389 52.3447 273.668 58.4487 280.261C63.5865 285.81 65.1126 290.078 66.8949 303.882C68.9102 319.492 68.5278 332.68 65.8931 338.433C63.7435 343.127 62.2091 344.3 56.6276 345.516C51.3946 346.656 48.1592 346.003 45.5511 343.279C43.4527 341.088 43.4528 341.088 43.4528 328.525C43.4528 315.962 43.4527 315.962 41.0639 313.827C37.5503 310.685 34.9265 311.157 31.9669 315.463C27.3675 322.155 25.5233 336.233 26.0788 360.413C26.4925 378.425 27.8533 386.325 31.9972 394.773C34.7422 400.369 37.2822 402.721 41.282 403.37C46.9619 404.292 50.9155 399.824 51.468 391.86C51.9024 385.598 50.853 383.884 46.533 383.804C42.8572 383.736 40.1721 382.319 38.2993 379.461C36.7421 377.085 36.1389 366.49 37.313 362.138C38.3487 358.3 41.4184 354.81 43.8114 354.752C49.2515 354.619 65.1546 356.448 66.5682 357.369C72.7264 361.383 73.7423 402.568 68.183 422.834C66.2636 429.831 64.4399 433.233 60.2113 437.704C53.9896 444.283 44.7766 447.071 36.7039 444.818ZM377.392 443.781C375.787 442.175 375.782 442.099 376.3 427.005C376.587 418.666 377.054 407.323 377.34 401.8C377.625 396.276 377.923 365.238 378.002 332.826C378.146 273.896 378.146 273.896 376.505 272.074C374.865 270.253 374.865 270.253 369.485 271.668C366.526 272.446 363.136 272.991 361.953 272.88C359.801 272.678 359.801 272.678 359.61 253.142C359.381 229.75 359.043 230.709 367.512 230.72C376.305 230.732 399.042 233.526 405.866 235.433C409.35 236.406 409.671 236.687 410.528 239.514C411.796 243.694 411.668 273.987 410.376 275.544C409.058 277.132 407.468 276.877 403.674 274.471C399.746 271.98 397.81 271.761 396.777 273.692C395.604 275.883 397.935 358.959 400.018 389.246C401.101 404.984 402.939 424.975 403.554 427.706C403.742 428.54 403.942 431.38 403.999 434.017C404.088 438.089 403.86 439.07 402.485 440.534C400.026 443.151 395.028 444.556 386.618 444.995C379.409 445.372 378.918 445.307 377.392 443.781ZM415.664 443.702C411.278 442.43 411.345 443.343 413.49 414.114C416.512 372.949 417.767 328.281 417.279 279.329C416.807 231.99 416.137 236.452 423.717 236.452C430.105 236.452 436.808 237.853 438.709 239.584C440.389 241.115 440.389 241.115 439.732 254.744C436.791 315.72 436.957 381.344 440.128 411.484C442.833 437.184 442.825 437.048 441.69 439.242C439.778 442.94 434.654 444.501 424.72 444.413C420.972 444.379 416.897 444.06 415.664 443.702ZM465.887 442.813C456.84 439.401 451.804 430.4 447.739 410.382C443.028 387.177 441.261 359.332 442.573 328.989C443.917 297.918 445.805 282.387 449.923 268.523C454.648 252.619 460.142 246.073 469.913 244.707C474.019 244.133 481.392 246.33 485.611 249.386C491.739 253.826 497.259 265.699 499.608 279.493C501.974 293.39 503.104 317.373 502.667 344.412C502.112 378.723 500.744 393.77 496.435 412.918C494.021 423.646 492.118 428.956 489.053 433.509C483.746 441.395 473.275 445.6 465.887 442.813ZM477.052 390.011C486.376 376.917 487.888 307.477 479.158 293.351C475.987 288.22 472.775 288.529 470.172 294.213C466.749 301.69 464.04 319.691 463.048 341.543C462.25 359.14 465.807 384.197 469.924 389.98C471.995 392.889 474.994 392.902 477.052 390.011ZM510.084 441.529C502.042 440.486 502.148 440.807 504.28 424.037C505.759 412.404 506.269 402.084 506.905 370.954C507.131 359.907 507.427 349.254 507.563 347.282C508.011 340.769 507.958 273.208 507.5 268.231C506.96 262.353 508.087 257.417 510.144 256.656C512.288 255.863 522.453 256.938 524.933 258.22C526.275 258.914 527.707 260.61 528.657 262.631C531.721 269.148 539.986 306.596 544.089 332.542C546.332 346.733 547.751 349.456 547.098 338.315C546.855 334.172 546.326 321.906 545.924 311.056C545.521 300.206 544.884 286.487 544.509 280.569C543.814 269.613 544.257 264.813 546.078 263.572C548.62 261.839 562.217 265.52 565.536 268.84C567.572 270.875 567.643 271.156 567.188 275.409C565.652 289.789 564.213 413.879 565.424 427.472C565.839 432.123 565.981 436.714 565.74 437.673C565.077 440.316 562.732 441.131 555.605 441.195C548.209 441.261 545.774 440.231 544.173 436.356C543.657 435.104 542.388 427.947 541.355 420.45C538.699 401.183 537.618 394.879 534.785 382.152C533.413 375.993 531.487 367.08 530.504 362.346C529.52 357.611 528.37 352.938 527.948 351.96C527.244 350.328 527.122 350.288 526.458 351.474C526.061 352.184 525.908 353.468 526.119 354.328C526.331 355.187 526.707 363.476 526.957 372.747C527.206 382.019 528.031 398.637 528.79 409.676C530.657 436.849 530.684 436.05 527.799 439.198C525.571 441.629 525.131 441.797 520.446 442.006C517.706 442.128 513.043 441.913 510.084 441.529ZM583.611 438.81C579.64 436.96 574.344 431.261 572.218 426.548C567.431 415.934 566.138 392.253 569.661 379.709C570.757 375.808 573.969 374.323 578.328 375.702C580.936 376.527 581.724 377.232 583.045 379.921C584.356 382.591 584.622 384.326 584.586 389.963C584.517 400.709 586.202 402.919 592.236 399.998C597.508 397.446 598.526 395.592 598.141 389.246C597.692 381.834 595.128 375.703 585.981 360.168C570.976 334.682 569.473 329.775 569.953 307.828C570.397 287.598 575.125 277.411 586.117 273.005C589.892 271.492 597.929 271.807 602.694 273.654C607.254 275.422 614.992 282.794 617.482 287.742C621.612 295.947 622.592 316.301 619.15 322.36C616.3 327.376 611.425 329.69 607.322 327.976C603.972 326.576 602.621 323.19 602.621 316.195C602.621 307.845 601.78 306.257 596.714 305.047C595.249 304.697 594.367 304.963 593.231 306.098C591.823 307.507 591.733 308.21 592.008 315.614C592.382 325.664 594.097 330.761 601.027 342.426C614.748 365.522 619.11 378.21 619.117 395.038C619.121 406.838 615.935 421.15 611.809 427.858C608.992 432.44 604.537 436.75 600.827 438.486C596.177 440.661 587.921 440.816 583.611 438.81ZM54.7083 260.865C31.2146 254.525 20.2678 233.025 24.8434 202.21C27.5528 183.963 37.0074 155.231 46.3864 136.742C57.8329 114.177 78.8072 88.7868 90.925 82.8266C95.2921 80.6786 96.4308 80.4301 101.905 80.4301C107.25 80.4301 108.425 80.6724 111.309 82.3677C117.6 86.0659 122.337 95.6735 124.093 108.293C125.081 115.402 125.103 143.411 124.123 146.941C122.368 153.259 116.119 156.552 104.39 157.341C98.6207 157.728 98.6103 157.726 96.747 155.512C95.135 153.596 94.8111 152.358 94.3651 146.409C94.0812 142.622 94.0283 138.184 94.2479 136.547C94.8084 132.368 94.1073 129.655 92.1331 128.361C90.587 127.348 90.2669 127.363 88.4664 128.539C83.6918 131.657 78.7375 138.202 75.0229 146.3C66.932 163.939 63.2176 186.691 66.7137 197.197C69.1387 204.484 71.8925 208.256 76.2789 210.298C80.6075 212.314 83.0193 212.484 86.5173 211.023C89.885 209.616 92.3847 206.804 94.8396 201.661C97.2143 196.686 97.2952 196.066 95.7677 194.538C94.8741 193.645 93.6468 193.497 89.8497 193.824C85.7415 194.177 84.5992 193.999 81.831 192.569C77.4051 190.282 75.8751 187.216 76.402 181.688C76.8679 176.801 78.9741 171.632 81.6291 168.859C84.5287 165.831 87.3907 165.227 96.4177 165.735C102.491 166.077 105.381 165.924 108.373 165.102C112.951 163.843 118.622 163.677 120.612 164.742C122.491 165.747 124.783 170.431 125.625 174.985C126.006 177.048 126.626 189.381 127.002 202.393C127.434 217.3 128.111 228.704 128.833 233.224C130.124 241.303 129.594 244.896 126.823 246.847C125.947 247.464 122.254 248.924 118.616 250.091C113.504 251.732 111.59 252.058 110.188 251.524C107.975 250.683 105.634 247.041 105.06 243.545C104.128 237.875 102.48 238.013 99.0755 244.044C95.3196 250.7 90.2797 255.474 83.4266 258.87C77.4784 261.818 77.2851 261.86 68.6757 262.069C61.7476 262.237 58.8724 261.989 54.7083 260.865ZM561.732 251.772C547.165 249.553 490.328 235.458 486.147 233.027C484.68 232.174 483.541 230.692 482.862 228.751C481.663 225.321 482.144 219.817 485.232 201.661C487.214 190.002 489.509 174.918 490.688 165.794C491.995 155.67 498.507 92.4781 499.706 78.2781C500.329 70.9021 500.81 70.0286 504.256 70.0286C510.16 70.0286 514.629 73.3126 529.909 88.8803C557.454 116.943 570.662 134.877 572.234 146.347C572.617 149.136 572.438 149.773 570.821 151.39C569.181 153.031 568.395 153.24 563.888 153.24C556.992 153.24 554.542 151.857 544.867 142.503C533.034 131.063 527.192 128.323 525.7 133.514C524.175 138.821 527.392 149.706 531.229 152.22C532.568 153.097 535.26 153.599 540.211 153.894C548.147 154.368 550.381 155.424 552.585 159.747C555.185 164.847 553.755 177.85 550.174 181.661C547.955 184.023 545.391 183.827 539.464 180.843C536.705 179.453 533.009 178.119 531.25 177.878C528.316 177.476 527.876 177.629 525.906 179.738C523.43 182.389 522.631 185.612 523.317 190.185C524.424 197.568 532.491 202.151 541.459 200.493C547.087 199.452 551.09 197.555 559.883 191.76C567.717 186.597 567.717 186.597 572.795 186.597C578.783 186.597 581.637 187.794 586.876 192.505C593.446 198.411 597.431 209.437 598.106 223.576C598.72 236.432 596.204 242.941 588.507 248.414C582.056 253.001 575.332 253.844 561.732 251.772ZM139.935 242.441C137.604 241.512 135.029 238.336 134.301 235.494C133.816 233.598 133.412 215.085 133.196 184.804C132.799 129.133 132.174 119.797 127.351 97.4475C126.39 92.9982 124.148 84.902 122.369 79.4558C120.589 74.0097 119.135 68.2886 119.139 66.7425C119.147 63.6756 122.097 57.8437 124.974 55.2107C129.903 50.6992 157.335 35.6938 165.616 32.9794C173.891 30.2666 182.342 30.1247 187.435 32.6132C199.759 38.6346 206.106 57.9626 204.881 85.7368C204.054 104.48 201.867 115.032 196.799 124.736C193.742 130.589 187.51 136.63 182.933 138.176C178.259 139.755 178.623 141.415 184.357 144.655C190.053 147.875 192.928 150.741 196.665 156.926C200.123 162.65 201.787 166.842 204.596 176.913C211.345 201.104 216.258 210.949 225.4 218.603C228.812 221.46 229.616 223.004 228.158 223.905C227.004 224.618 218.348 226.85 211.311 228.249C201.381 230.222 195.818 229.956 189.984 227.23C185.804 225.276 184.866 224.468 182.997 221.208C180.193 216.319 178.178 210.097 173.301 191.26C168.849 174.066 166.129 167.248 163.291 166.169C159.232 164.625 158.425 166.563 158.518 177.63C158.654 193.904 162.487 210.939 168.59 222.391C174.064 232.664 172.767 234.197 153.565 240.146C146.386 242.371 141.726 243.155 139.935 242.441ZM165.078 124.324C167.717 122.2 170.926 117.204 173 111.993C174.569 108.05 174.712 106.668 174.713 95.4943C174.713 84.1997 174.587 83.0202 173.01 79.5169C170.76 74.5179 167.948 72.1807 164.185 72.1807C161.775 72.1807 160.818 72.6495 158.502 74.9657C155.28 78.1876 155.484 76.56 155.657 97.6464C155.797 114.784 156.703 123.996 158.418 125.711C159.761 127.054 162.358 126.513 165.078 124.324ZM442.654 226.487C435.979 225.007 428.053 222.195 425.098 220.259C421.762 218.073 421.357 216.237 420.84 200.944C420.349 186.438 418.838 162.754 417.522 148.936C417.127 144.794 416.634 139.467 416.426 137.1C415.916 131.287 414.287 118.203 412.184 103.026C411.228 96.122 409.756 85.4694 408.912 79.3541C405.995 58.2054 402.544 42.731 397.044 26.1454C394.596 18.7626 393.846 15.4795 394.012 12.8745C394.233 9.41322 394.233 9.41324 397.461 9.52538C404.795 9.78012 427.841 19.0827 433.545 24.0906C438.731 28.6436 438.561 27.4115 438.79 62.1379C439.081 106.14 442.137 153.722 444.962 158.246C446.805 161.197 449.146 160.786 450.841 157.215C452.578 153.555 456.138 127.792 458.126 104.492C458.717 97.5707 459.393 81.255 459.629 68.2353C459.864 55.2155 460.349 43.9981 460.706 43.3076C461.171 42.4084 462.227 42.0523 464.428 42.0523C466.934 42.0523 468.923 42.9062 475.191 46.6705C490.992 56.1604 494.81 59.5599 495.507 64.7585C495.769 66.7096 494.687 72.505 491.909 84.0321C484.286 115.666 477.017 155.702 472.442 191.26C471.401 199.348 470.094 209.431 469.536 213.668C467.998 225.351 466.251 227.055 455.301 227.546C450.6 227.756 447.03 227.458 442.654 226.487ZM242.767 217.871C228.309 213.734 218.208 199.219 214.261 176.913C210.571 156.057 209.237 131.698 209.703 93.701C210.041 66.1094 210.254 61.9029 211.95 49.4099C215.517 23.1312 221.493 11.3745 234.355 5.32976C247.604 -0.896977 267.015 2.17677 277.542 12.1682C280.366 14.8492 286.741 24.9982 289.098 30.5661C293.273 40.4307 296.128 50.9641 298.432 65.0073C301.757 85.2618 302.249 92.3058 302.493 123.112C302.701 149.343 302.565 154.118 301.344 163.283C297.618 191.257 289.574 208.266 277.153 214.434C268.131 218.915 252.035 220.524 242.767 217.871ZM261.871 166.776C264.737 165.029 265.651 163.993 267.672 160.196C274.235 147.87 276.115 105.709 271.173 81.6885C269.523 73.6729 265.998 62.8392 263.883 59.2894C257.824 49.1173 250.903 48.7999 245.853 58.4626C240.734 68.2605 238.999 78.0863 238.427 100.526C237.742 127.442 240.142 146.701 245.745 159.234C247.332 162.782 251.026 166.986 253.275 167.801C255.674 168.671 259.514 168.213 261.871 166.776ZM350.361 217.015C337.562 214.877 326.786 206.302 320.331 193.117C316.594 185.485 314.247 177.648 311.395 163.283C307.812 145.235 307.439 138.641 307.437 93.3423C307.434 46.7764 307.954 39.3374 312.147 25.9121C316.541 11.8453 321.534 5.06569 329.925 1.77497C335.544 -0.428567 353.181 -0.626385 359.801 1.43973C369.681 4.52375 375.798 8.71944 381.144 16.0787C391.29 30.0449 396.261 42.2568 401.061 65.0072C409.781 106.334 409.205 153.422 399.56 187.673C394.371 206.099 387.125 214.127 373.296 216.773C367.476 217.887 356.285 218.005 350.361 217.015ZM363.827 166.803C366.082 165.642 369.357 161.196 370.802 157.335C373.235 150.833 374.642 139.586 375.028 123.565C375.567 101.215 373.199 81.4123 368.413 68.2353C366.184 62.1001 361.09 54.4812 357.685 52.1897C354.46 50.0198 350.203 49.99 347.217 52.1164C342.443 55.5158 337.948 68.3775 336.414 83.0286C335.139 95.2131 335.938 124.237 337.844 134.948C340.118 147.72 343.306 156.5 347.825 162.429C351.555 167.323 358.91 169.334 363.827 166.803Z" />
</svg>